<svg width="32" height="32" viewBox="0 0 32 32" fill="currentColor" xmlns="http://www.w3.org/2000/svg">
<path d="M24.9508 12.2922C24.9087 11.3358 24.754 10.6783 24.5324 10.1085C24.3039 9.50372 23.9522 8.96226 23.4915 8.51214C23.0414 8.05502 22.4964 7.69982 21.8986 7.47483C21.3256 7.25327 20.6715 7.09861 19.7151 7.05644C18.7515 7.0107 18.4456 7.00012 16.0018 7.00012C13.5579 7.00012 13.252 7.0107 12.2921 7.05287C11.3357 7.09504 10.6781 7.24984 10.1085 7.47125C9.50359 7.69982 8.96213 8.05145 8.51202 8.51214C8.0549 8.96226 7.69983 9.50729 7.4747 10.1051C7.25315 10.6783 7.09848 11.3322 7.05632 12.2886C7.01058 13.2522 7 13.5581 7 16.0019C7 18.4458 7.01058 18.7516 7.05274 19.7116C7.09491 20.668 7.24971 21.3256 7.47127 21.8953C7.69983 22.5001 8.0549 23.0416 8.51202 23.4917C8.96213 23.9488 9.50716 24.304 10.1049 24.529C10.6781 24.7505 11.3321 24.9052 12.2886 24.9474C13.2485 24.9897 13.5545 25.0001 15.9983 25.0001C18.4422 25.0001 18.7481 24.9897 19.7081 24.9474C20.6645 24.9052 21.322 24.7505 21.8916 24.529C23.1013 24.0613 24.0577 23.1049 24.5254 21.8953C24.7468 21.3221 24.9016 20.668 24.9438 19.7116C24.986 18.7516 24.9966 18.4458 24.9966 16.0019C24.9966 13.5581 24.993 13.2522 24.9508 12.2922ZM23.3299 19.6413C23.2911 20.5204 23.1435 20.9951 23.0204 21.3116C22.718 22.0957 22.0956 22.7181 21.3114 23.0205C20.995 23.1436 20.5168 23.2913 19.6412 23.3299C18.6918 23.3722 18.407 23.3826 16.0054 23.3826C13.6037 23.3826 13.3154 23.3722 12.3694 23.3299C11.4903 23.2913 11.0156 23.1436 10.6991 23.0205C10.3089 22.8763 9.95371 22.6478 9.6654 22.3489C9.36651 22.057 9.13795 21.7054 8.99373 21.3151C8.87066 20.9987 8.723 20.5204 8.6844 19.6449C8.64209 18.6955 8.63166 18.4106 8.63166 16.0089C8.63166 13.6072 8.64209 13.3189 8.6844 12.3731C8.723 11.494 8.87066 11.0193 8.99373 10.7028C9.13795 10.3125 9.36651 9.9574 9.66897 9.66896C9.96072 9.37007 10.3123 9.14151 10.7027 8.99742C11.0192 8.87435 11.4975 8.72669 12.373 8.68796C13.3224 8.64579 13.6073 8.63521 16.0088 8.63521C18.414 8.63521 18.6988 8.64579 19.6447 8.68796C20.5238 8.72669 20.9985 8.87435 21.315 8.99742C21.7052 9.14151 22.0604 9.37007 22.3487 9.66896C22.6476 9.96084 22.8762 10.3125 23.0204 10.7028C23.1435 11.0193 23.2911 11.4974 23.3299 12.3731C23.372 13.3225 23.3826 13.6072 23.3826 16.0089C23.3826 18.4106 23.372 18.6919 23.3299 19.6413Z" fill="#454545"/>
<path d="M16.0018 11.3779C13.449 11.3779 11.3778 13.449 11.3778 16.0019C11.3778 18.5548 13.449 20.6259 16.0018 20.6259C18.5547 20.6259 20.6257 18.5548 20.6257 16.0019C20.6257 13.449 18.5547 11.3779 16.0018 11.3779ZM16.0018 19.0013C14.3457 19.0013 13.0023 17.6581 13.0023 16.0019C13.0023 14.3457 14.3457 13.0024 16.0018 13.0024C17.658 13.0024 19.0012 14.3457 19.0012 16.0019C19.0012 17.6581 17.658 19.0013 16.0018 19.0013Z" fill="#454545"/>
<path d="M21.8882 11.1951C21.8882 11.7912 21.4049 12.2746 20.8086 12.2746C20.2125 12.2746 19.7291 11.7912 19.7291 11.1951C19.7291 10.5988 20.2125 10.1156 20.8086 10.1156C21.4049 10.1156 21.8882 10.5988 21.8882 11.1951Z" fill="#454545"/>
</svg>
