<svg width="34" height="43" viewBox="0 0 34 43" fill="none" xmlns="http://www.w3.org/2000/svg">
<path fill-rule="evenodd" clip-rule="evenodd" d="M22.2789 0.308454C20.8087 0.714103 20.0577 1.05118 18.7155 1.90758C17.616 2.609 17.5375 2.63197 16.2457 2.63197C15.5118 2.63197 14.9113 2.67146 14.9113 2.71987C14.9113 2.76829 15.0262 3.07926 15.1666 3.41104C15.6219 4.48605 16.1008 6.61377 16.2001 8.0014L16.2971 9.35631L15.1682 9.47032C12.6955 9.72032 10.0278 10.6089 7.80644 11.9222C6.21103 12.8654 3.63422 15.4138 2.60125 17.0697C1.19338 19.3267 0.387802 21.723 0.100467 24.5082L0 25.4824L1.20008 25.3724C3.97715 25.1178 6.75104 24.1672 8.967 22.7111C10.3226 21.8204 12.5076 19.8319 13.0234 19.0198C13.1779 18.7763 13.5006 18.3168 13.7405 17.9987C14.8778 16.4904 16.2502 12.3574 16.2507 10.4393L16.2509 9.57178H17.0044C17.7235 9.57178 17.7579 9.59359 17.7579 10.0493C17.7579 10.7904 18.2376 13.174 18.6262 14.3635C19.5716 17.2576 21.4798 19.9281 24.0551 21.9615C26.295 23.73 29.8127 25.1054 32.773 25.3701L34 25.4798V25.0558C34 24.0153 33.6006 21.9245 33.1412 20.5598C32.1579 17.6396 30.3371 15.0232 27.9742 13.1352C25.3371 11.028 22.4912 9.87547 18.9718 9.48899C18.3963 9.42587 17.9169 9.30707 17.9067 9.22512C17.7627 8.07162 18.3525 4.2843 18.6761 4.2843C18.7135 4.2843 19.2587 4.53909 19.8874 4.85056C22.2599 6.02553 24.9864 6.38971 27.2915 5.83965C28.7439 5.49299 30.8857 4.44772 31.8232 3.628L32.5767 2.96921L31.9907 2.48094C31.0088 1.66287 29.7253 0.968728 28.2695 0.468731C27.0733 0.0577953 26.643 -0.00631554 25.1254 0.000459036C23.9585 0.00558127 23.0012 0.109183 22.2789 0.308454ZM0.101973 26.9061C-0.0689877 27.1791 0.360843 29.9325 0.780627 31.2542C2.05103 35.2539 4.62181 38.5238 8.14401 40.62C10.1683 41.8249 12.6593 42.6223 15.2308 42.8888L16.3038 43L16.2001 41.5286C16.1432 40.7194 15.9362 39.4997 15.7403 38.8181C15.2562 37.1344 13.9582 34.4935 13.0036 33.2504C10.7637 30.3335 6.75723 27.8664 3.13925 27.1761C1.48507 26.8603 0.201938 26.7463 0.101973 26.9061ZM32.3207 26.9322C29.8757 27.1886 26.7999 28.3915 24.5702 29.9634C21.8891 31.8535 19.6468 34.8738 18.6051 37.9989C18.2433 39.0846 17.7597 41.6593 17.7585 42.5078L17.7579 42.9752L18.8881 42.8638C25.2929 42.2322 30.7164 38.2079 32.9141 32.4566C33.7242 30.3368 34.2815 26.7265 33.7907 26.778C33.6757 26.7901 33.0141 26.8595 32.3207 26.9322Z" fill="#981314"/>
</svg>
