<svg width="120" height="150" viewBox="0 0 120 150" fill="none" xmlns="http://www.w3.org/2000/svg">
<path fill-rule="evenodd" clip-rule="evenodd" d="M78.6313 1.076C73.4425 2.49106 70.7919 3.6669 66.0546 6.65436C62.1742 9.10117 61.897 9.18128 57.3376 9.18128C54.7474 9.18128 52.6281 9.31904 52.6281 9.48793C52.6281 9.65681 53.0335 10.7416 53.5293 11.899C55.1362 15.649 56.8264 23.0713 57.1769 27.9118L57.5191 32.6383L53.5347 33.036C44.8076 33.9081 35.3921 37.008 27.5522 41.5891C21.9213 44.8792 12.8267 53.769 9.1809 59.5456C4.21193 67.4186 1.36871 75.7781 0.354588 85.4938L0 88.8922L4.23557 88.5084C14.037 87.6201 23.8272 84.3041 31.6482 79.2249C36.4328 76.1176 44.1445 69.1812 45.9648 66.3482C46.5102 65.4986 47.6491 63.8957 48.4959 62.7861C52.5099 57.5248 57.3536 43.1074 57.3554 36.416L57.3559 33.3899H60.0154C62.5536 33.3899 62.6748 33.466 62.6748 35.0557C62.6748 37.6408 64.3679 45.9559 65.7396 50.1054C69.0763 60.201 75.8111 69.5167 84.9004 76.6098C92.806 82.779 105.221 87.5769 115.669 88.5003L120 88.883V87.404C120 83.7744 118.591 76.4807 116.969 71.7202C113.499 61.5336 107.072 52.4064 98.7323 45.8205C89.425 38.4697 79.3806 34.4493 66.9594 33.1011C64.9282 32.881 63.2362 32.4665 63.2002 32.1806C62.6919 28.1568 64.7734 14.9452 65.9157 14.9452C66.0475 14.9452 67.9718 15.834 70.1909 16.9206C78.5645 21.0193 88.1875 22.2897 96.3229 20.3709C101.449 19.1616 109.008 15.5153 112.317 12.6558L114.977 10.3577L112.908 8.65446C109.443 5.80072 104.913 3.37928 99.7748 1.63511C95.5529 0.201612 94.034 -0.0220309 88.678 0.00160129C84.5594 0.0194696 81.1808 0.38087 78.6313 1.076ZM0.359906 93.8585C-0.243486 94.8107 1.27356 104.416 2.75516 109.026C7.23893 122.979 16.3123 134.385 28.7436 141.698C35.8879 145.901 44.68 148.682 53.7557 149.612L57.5427 150L57.1769 144.867C56.976 142.045 56.2455 137.79 55.554 135.412C53.8455 129.539 49.2642 120.326 45.895 115.99C37.9895 105.815 23.8491 97.2085 11.0797 94.8003C5.24141 93.6988 0.712722 93.3011 0.359906 93.8585ZM114.073 93.9495C105.444 94.8441 94.5878 99.0403 86.7183 104.524C77.2555 111.117 69.3416 121.653 65.6651 132.554C64.388 136.342 62.6813 145.323 62.6771 148.283L62.6748 149.914L66.6639 149.525C89.269 147.321 108.411 133.283 116.167 113.221C119.027 105.826 120.993 93.2319 119.261 93.4118C118.855 93.4538 116.52 93.6959 114.073 93.9495Z" fill="#981314"/>
</svg>
