<svg width="32" height="32" viewBox="0 0 32 32" fill="none" xmlns="http://www.w3.org/2000/svg">
<path d="M16.3553 16.17C16.3512 16.1694 16.3461 16.169 16.3413 16.1678C16.3325 16.1657 16.326 16.1601 16.3209 16.1526C16.3195 16.1504 16.318 16.1482 16.3165 16.146C16.3117 16.1388 16.3047 16.1351 16.2964 16.1342C16.2922 16.1337 16.288 16.1333 16.2839 16.1333C16.2676 16.1335 16.2556 16.1258 16.2476 16.1118C16.2382 16.0956 16.2409 16.0796 16.2502 16.0644C16.2527 16.0603 16.2559 16.0566 16.2589 16.0528C16.2622 16.0484 16.2642 16.0435 16.2642 16.0379C16.2644 16.0312 16.2612 16.0264 16.2555 16.0236C16.2529 16.0223 16.25 16.0214 16.2472 16.0206C16.2314 16.0166 16.2214 16.0062 16.2158 15.991C16.2114 15.979 16.2105 15.9666 16.2142 15.9543C16.2186 15.9393 16.229 15.9299 16.2426 15.924C16.2495 15.921 16.257 15.9191 16.2641 15.9166C16.2671 15.9156 16.2701 15.9145 16.273 15.9131C16.2783 15.9106 16.2819 15.9065 16.284 15.9008C16.2851 15.8975 16.2866 15.8943 16.2883 15.8913C16.2945 15.8796 16.3045 15.8741 16.3172 15.873C16.3249 15.8723 16.3326 15.8713 16.34 15.8685C16.3468 15.8659 16.3513 15.8613 16.3541 15.8543C16.3568 15.8476 16.36 15.841 16.3639 15.835C16.3694 15.8263 16.3777 15.8215 16.3881 15.8205C16.3982 15.8195 16.4079 15.821 16.4172 15.8249C16.4307 15.8305 16.438 15.8416 16.4415 15.8556C16.4429 15.8613 16.4437 15.8671 16.4451 15.8728C16.4465 15.8783 16.4491 15.8833 16.4526 15.8877C16.4584 15.895 16.4658 15.8988 16.4752 15.8981C16.48 15.8978 16.4849 15.898 16.4895 15.8999C16.5 15.9043 16.5056 15.9126 16.5073 15.9238C16.5082 15.9298 16.5081 15.9359 16.5094 15.9418C16.5116 15.9521 16.5177 15.9598 16.5269 15.9647C16.5341 15.9685 16.541 15.9728 16.5462 15.9795C16.5539 15.9895 16.5553 16.0009 16.5528 16.013C16.5507 16.0228 16.5473 16.032 16.5397 16.039C16.534 16.0443 16.527 16.0472 16.5198 16.0493C16.5113 16.0516 16.5026 16.0534 16.494 16.0555C16.4873 16.0572 16.4828 16.061 16.482 16.0685C16.4816 16.0728 16.4831 16.0762 16.4863 16.0789C16.4911 16.083 16.497 16.0844 16.503 16.0851C16.524 16.0874 16.542 16.1036 16.5466 16.1246C16.5491 16.1357 16.5463 16.146 16.5416 16.1558C16.5344 16.1706 16.5225 16.1782 16.5065 16.1799C16.4801 16.1826 16.4581 16.1665 16.4494 16.1432C16.4474 16.1377 16.4454 16.1321 16.4427 16.1269C16.438 16.1178 16.4312 16.115 16.4221 16.1171C16.4179 16.1181 16.4148 16.1209 16.4126 16.1246C16.4101 16.129 16.4079 16.1336 16.4055 16.1382C16.3972 16.1542 16.3848 16.1649 16.3671 16.1687C16.3635 16.1695 16.3598 16.1696 16.3553 16.17ZM16.3303 15.9481C16.3356 15.9481 16.3401 15.9435 16.34 15.9381C16.3399 15.9328 16.3355 15.9284 16.3303 15.9284C16.3251 15.9284 16.3207 15.9328 16.3206 15.9381C16.3206 15.9436 16.3249 15.9481 16.3303 15.9481ZM16.418 15.9381C16.4179 15.9438 16.422 15.9481 16.4275 15.9481C16.4327 15.9481 16.4371 15.9438 16.4372 15.9384C16.4374 15.933 16.4328 15.9284 16.4276 15.9284C16.4223 15.9283 16.418 15.9326 16.418 15.9381Z" fill="#454545"/>
<g clip-path="url(#clip0_409_1220)">
<path d="M14.2335 25.0001V16.554H12.0001V13.513H14.2335V10.9156C14.2335 8.8745 15.5527 7.00012 18.5925 7.00012C19.8233 7.00012 20.7334 7.11811 20.7334 7.11811L20.6616 9.9579C20.6616 9.9579 19.7335 9.94886 18.7207 9.94886C17.6245 9.94886 17.4488 10.454 17.4488 11.2925V13.513H20.7488L20.6052 16.554H17.4488V25.0001H14.2335Z" fill="#454545"/>
</g>
<defs>
<clipPath id="clip0_409_1220">
<rect width="8.74872" height="18" fill="white" transform="translate(12 7.00012)"/>
</clipPath>
</defs>
</svg>
