<svg width="32" height="32" viewBox="0 0 32 32" fill="none" xmlns="http://www.w3.org/2000/svg">
<path d="M22.3002 5.33337H9.69988C7.29775 5.33337 5.33337 7.29775 5.33337 9.69988V22.3011C5.33337 24.7023 7.29775 26.6667 9.69988 26.6667H22.3011C24.7023 26.6667 26.6676 24.7023 26.6676 22.3002V9.69988C26.6667 7.29775 24.7015 5.33337 22.3002 5.33337ZM22.6373 18.4295C22.6006 18.4841 22.5528 18.5438 22.4922 18.6104L22.4879 18.6155C22.2353 18.9184 21.9503 19.2026 21.6372 19.4646C19.4731 21.4648 15.9104 23.8473 15.4403 23.4795C15.0315 23.1604 16.1135 21.5979 14.8651 21.3376C14.7781 21.3274 14.691 21.3172 14.6048 21.3044H14.6031C10.9372 20.7838 8.15279 18.2187 8.15279 15.1339C8.15279 11.6728 11.6566 8.86703 15.9796 8.86703C20.3025 8.86703 23.8063 11.6728 23.8063 15.1339C23.8063 16.3439 23.378 17.472 22.6373 18.4295Z" fill="#454545"/>
<path d="M11.5244 17.2571H13.093C13.316 17.2571 13.4983 17.0676 13.4983 16.8359V16.8006C13.4983 16.5689 13.316 16.3794 13.093 16.3794H11.9636V13.7095C11.9636 13.4778 11.7813 13.2883 11.5583 13.2883H11.5244C11.3014 13.2883 11.1191 13.4778 11.1191 13.7095V16.8359C11.1191 17.0676 11.3014 17.2571 11.5244 17.2571ZM21.2438 15.2983V15.263C21.2438 15.0313 21.0615 14.8418 20.8385 14.8418H19.7092V14.1748H20.8385C21.0615 14.1748 21.2438 13.9853 21.2438 13.7536V13.7183C21.2438 13.4866 21.0615 13.2971 20.8385 13.2971H19.2699C19.0469 13.2971 18.8646 13.4866 18.8646 13.7183V16.8447C18.8646 17.0764 19.0469 17.2659 19.2699 17.2659H20.8385C21.0615 17.2659 21.2438 17.0764 21.2438 16.8447V16.8094C21.2438 16.5777 21.0615 16.3883 20.8385 16.3883H19.7092V15.7212H20.8385C21.0607 15.7195 21.2438 15.53 21.2438 15.2983ZM18.227 17.132C18.3025 17.0535 18.344 16.9469 18.344 16.8359V13.7095C18.344 13.4778 18.1617 13.2883 17.9387 13.2883H17.9048C17.6818 13.2883 17.4995 13.4778 17.4995 13.7095V15.545L16.0335 13.5016C15.9632 13.3747 15.8317 13.2883 15.6817 13.2883H15.6477C15.4247 13.2883 15.2424 13.4778 15.2424 13.7095V16.8359C15.2424 17.0676 15.4247 17.2571 15.6477 17.2571H15.6817C15.9047 17.2571 16.0869 17.0676 16.0869 16.8359V14.9661L17.5631 17.0623C17.5725 17.0773 17.5818 17.0914 17.5928 17.1046C17.6335 17.1619 17.6886 17.2016 17.7505 17.2254C17.798 17.2456 17.8497 17.2571 17.904 17.2571H17.9379C18.004 17.2571 18.0693 17.2403 18.127 17.2077C18.1694 17.1883 18.2033 17.1619 18.227 17.132ZM14.2318 17.2571H14.2657C14.4887 17.2571 14.671 17.0676 14.671 16.8359V13.7095C14.671 13.4778 14.4887 13.2883 14.2657 13.2883H14.2318C14.0088 13.2883 13.8265 13.4778 13.8265 13.7095V16.8359C13.8256 17.0676 14.0088 17.2571 14.2318 17.2571Z" fill="#454545"/>
</svg>
