<svg width="32" height="32" viewBox="0 0 32 32" fill="none" xmlns="http://www.w3.org/2000/svg">
<path fill-rule="evenodd" clip-rule="evenodd" d="M24.347 8.45687C25.2607 8.70296 25.9812 9.42333 26.2272 10.3372C26.6842 12.0065 26.6666 15.486 26.6666 15.486C26.6666 15.486 26.6666 18.9477 26.2273 20.6171C25.9812 21.5309 25.2609 22.2514 24.347 22.4973C22.6775 22.9368 16 22.9368 16 22.9368C16 22.9368 9.33987 22.9368 7.65303 22.4799C6.73913 22.2338 6.01876 21.5133 5.77266 20.5996C5.33337 18.9477 5.33337 15.4684 5.33337 15.4684C5.33337 15.4684 5.33337 12.0065 5.77266 10.3372C6.01859 9.4235 6.75671 8.68538 7.65286 8.43945C9.32229 8 15.9998 8 15.9998 8C15.9998 8 22.6775 8 24.347 8.45687ZM19.4269 15.4685L13.874 18.6668V12.2703L19.4269 15.4685Z" fill="#454545"/>
</svg>
